<svg version="1.1" xmlns="http://www.w3.org/2000/svg" xmlns:xlink="http://www.w3.org/1999/xlink" x="0px" y="0px"
	 viewBox="0 0 100 100" style="enable-background:new 0 0 100 100;" xml:space="preserve">
<g id="Vrstva_145">
	<g>
		<g>
			<path d="M50,74.528c-24.223,0-43.441-22.602-44.247-23.565c-0.468-0.557-0.468-1.37,0-1.927
				C6.559,48.074,25.777,25.472,50,25.472c24.224,0,43.441,22.602,44.247,23.565c0.468,0.557,0.468,1.37,0,1.927
				C93.441,51.926,74.224,74.528,50,74.528z M8.91,50C12.861,54.301,29.939,71.528,50,71.528c20.086,0,37.143-17.224,41.09-21.528
				C87.139,45.699,70.062,28.472,50,28.472C29.915,28.472,12.857,45.696,8.91,50z"/>
		</g>
		<g>
			<path d="M50,63.683c-7.545,0-13.683-6.138-13.683-13.683c0-7.544,6.138-13.683,13.683-13.683S63.683,42.456,63.683,50
				C63.683,57.544,57.545,63.683,50,63.683z M50,39.317c-5.891,0-10.683,4.792-10.683,10.683S44.109,60.683,50,60.683
				S60.683,55.891,60.683,50S55.891,39.317,50,39.317z"/>
		</g>
	</g>
</g>
<script  type="text/javascript">
    <![CDATA[
         var c=window.location.search.split('color=')[1]; c=parseInt(c,16); if(!isNaN(c)){c=c.toString(16);var p=document.getElementsByTagName('path');for(var i=0,l=p.length;i<l;i++){var s=p[i].style;s.fill='#'+c;} var p2=document.getElementsByTagName('polygon');for(var i=0,l=p2.length;i<l;i++){var s=p2[i].style;s.fill='#'+c;} var p3=document.getElementsByTagName('circle');for(var i=0,l=p3.length;i<l;i++){var s=p3[i].style;s.fill='#'+c;} }
        ]]>
</script>
</svg>
