<svg version="1.1" xmlns="http://www.w3.org/2000/svg" xmlns:xlink="http://www.w3.org/1999/xlink" x="0px" y="0px"
	 viewBox="0 0 100 100" style="enable-background:new 0 0 100 100;" xml:space="preserve">
<g id="Vrstva_151">
	<g>
		<g>
			<g>
				<path d="M24.999,62.712c-7.442,0-13.498-6.056-13.498-13.498c0-7.444,6.056-13.5,13.498-13.5c7.444,0,13.5,6.056,13.5,13.5
					C38.499,56.656,32.443,62.712,24.999,62.712z M24.999,38.714c-5.789,0-10.498,4.71-10.498,10.5
					c0,5.789,4.709,10.498,10.498,10.498c5.79,0,10.5-4.709,10.5-10.498C35.499,43.424,30.789,38.714,24.999,38.714z"/>
			</g>
		</g>
		<g>
			<path d="M74.999,36.712c-7.442,0-13.498-6.056-13.498-13.498c0-7.444,6.056-13.5,13.498-13.5c7.444,0,13.5,6.056,13.5,13.5
				C88.499,30.656,82.443,36.712,74.999,36.712z M74.999,12.714c-5.789,0-10.498,4.71-10.498,10.5
				c0,5.789,4.709,10.498,10.498,10.498c5.79,0,10.5-4.709,10.5-10.498C85.499,17.424,80.789,12.714,74.999,12.714z"/>
		</g>
		<g>
			<path d="M36.131,44.287c-0.548,0-1.075-0.301-1.34-0.823c-0.374-0.739-0.077-1.642,0.662-2.016l26.305-13.304
				c0.738-0.372,1.642-0.077,2.016,0.662c0.374,0.739,0.077,1.642-0.662,2.016L36.807,44.126
				C36.59,44.235,36.358,44.287,36.131,44.287z"/>
		</g>
		<g>
			<g>
				<path d="M74.999,90.286c-7.442,0-13.498-6.056-13.498-13.498c0-7.444,6.056-13.5,13.498-13.5c7.444,0,13.5,6.056,13.5,13.5
					C88.499,84.23,82.443,90.286,74.999,90.286z M74.999,66.288c-5.789,0-10.498,4.71-10.498,10.5
					c0,5.789,4.709,10.498,10.498,10.498c5.79,0,10.5-4.709,10.5-10.498C85.499,70.998,80.789,66.288,74.999,66.288z"/>
			</g>
			<g>
				<path d="M62.434,72.019c-0.221,0-0.444-0.049-0.656-0.151L34.473,58.562c-0.744-0.363-1.054-1.261-0.691-2.006
					c0.362-0.746,1.26-1.054,2.006-0.691L63.092,69.17c0.744,0.363,1.054,1.261,0.691,2.006
					C63.523,71.709,62.989,72.019,62.434,72.019z"/>
			</g>
		</g>
	</g>
</g>
<script  type="text/javascript">
    <![CDATA[
         var c=window.location.search.split('color=')[1]; c=parseInt(c,16); if(!isNaN(c)){c=c.toString(16);var p=document.getElementsByTagName('path');for(var i=0,l=p.length;i<l;i++){var s=p[i].style;s.fill='#'+c;} var p2=document.getElementsByTagName('polygon');for(var i=0,l=p2.length;i<l;i++){var s=p2[i].style;s.fill='#'+c;} var p3=document.getElementsByTagName('circle');for(var i=0,l=p3.length;i<l;i++){var s=p3[i].style;s.fill='#'+c;} }
        ]]>
</script>
</svg>
